<?xml version="1.0" encoding="utf-8"?>
<!-- Generator: Adobe Illustrator 23.0.3, SVG Export Plug-In . SVG Version: 6.00 Build 0)  -->
<svg version="1.1" id="Layer_1" xmlns:serif="http://www.serif.com/"
	 xmlns="http://www.w3.org/2000/svg" xmlns:xlink="http://www.w3.org/1999/xlink" x="0px" y="0px" viewBox="0 0 1138 111"
	 style="enable-background:new 0 0 1138 111;" xml:space="preserve">
<g>
	<path d="M32,70.8l-8.5,25.8h-11l27.9-82h12.8l28,82H69.9l-8.8-25.8H32z M58.9,62.4l-8-23.6c-1.8-5.4-3-10.2-4.3-15h-0.2
		c-1.2,4.9-2.6,9.9-4.1,14.8l-8,23.7h24.6V62.4z"/>
	<path d="M176.3,93.8c-3.9,1.9-11.7,3.9-21.7,3.9c-23.1,0-40.5-14.6-40.5-41.5c0-25.7,17.4-43.1,42.8-43.1c10.2,0,16.7,2.2,19.5,3.7
		l-2.6,8.6c-4-1.9-9.7-3.4-16.6-3.4c-19.2,0-32,12.3-32,33.8c0,20.1,11.6,33,31.5,33c6.5,0,13-1.3,17.3-3.4L176.3,93.8z"/>
	<path d="M189.6,15.7c5.4-1.1,13-1.7,20.3-1.7c11.3,0,18.6,2.1,23.7,6.7c4.1,3.7,6.4,9.2,6.4,15.6c0,10.8-6.8,18-15.5,20.9v0.4
		c6.3,2.2,10.1,8,12,16.6c2.7,11.4,4.6,19.3,6.3,22.5h-11c-1.3-2.3-3.2-9.4-5.5-19.6c-2.4-11.3-6.8-15.6-16.4-15.9h-10v35.4h-10.6
		V15.7H189.6z M200.2,52.9H211c11.3,0,18.5-6.2,18.5-15.6c0-10.6-7.7-15.2-18.9-15.3c-5.1,0-8.8,0.5-10.5,1v29.9H200.2z"/>
	<path d="M268.9,70.8l-8.5,25.8h-11l27.9-82h12.8l28,82h-11.3L298,70.8H268.9z M295.8,62.4l-8-23.6c-1.8-5.4-3-10.2-4.3-15h-0.2
		c-1.2,4.9-2.6,9.9-4.1,14.8l-8,23.7h24.6V62.4z"/>
	<path d="M328.8,83.7c4.7,2.9,11.7,5.4,19,5.4c10.8,0,17.2-5.7,17.2-14c0-7.7-4.4-12-15.5-16.3c-13.4-4.7-21.7-11.7-21.7-23.2
		c0-12.8,10.6-22.3,26.5-22.3c8.4,0,14.5,1.9,18.1,4l-2.9,8.6c-2.7-1.5-8.2-3.9-15.6-3.9c-11.2,0-15.5,6.7-15.5,12.3
		c0,7.7,5,11.4,16.3,15.8c13.9,5.4,20.9,12,20.9,24.1c0,12.7-9.4,23.6-28.7,23.6c-7.9,0-16.6-2.3-20.9-5.2L328.8,83.7z"/>
	<path d="M400.8,14.6v34.3h39.7V14.6h10.7v82h-10.7V58.1h-39.7v38.5h-10.6v-82H400.8z"/>
	<path d="M552.6,93.8c-3.9,1.9-11.7,3.9-21.7,3.9c-23.1,0-40.5-14.6-40.5-41.5c0-25.7,17.4-43.1,42.8-43.1c10.2,0,16.7,2.2,19.5,3.7
		l-2.6,8.6c-4-1.9-9.7-3.4-16.6-3.4c-19.2,0-32,12.3-32,33.8c0,20.1,11.6,33,31.5,33c6.5,0,13-1.3,17.3-3.4L552.6,93.8z"/>
	<path d="M633.5,54.7c0,28.2-17.2,43.2-38.1,43.2c-21.7,0-36.9-16.8-36.9-41.6c0-26,16.2-43.1,38.1-43.1
		C619,13.2,633.5,30.3,633.5,54.7z M569.8,56.1c0,17.5,9.5,33.2,26.2,33.2c16.8,0,26.3-15.5,26.3-34.1c0-16.3-8.5-33.3-26.2-33.3
		C578.6,21.8,569.8,38.1,569.8,56.1z"/>
	<path d="M657.8,14.6v48.6c0,18.4,8.2,26.2,19.1,26.2c12.2,0,20-8,20-26.2V14.6h10.7v47.8c0,25.2-13.3,35.5-31,35.5
		c-16.8,0-29.5-9.6-29.5-35V14.6H657.8z"/>
	<path d="M726,15.7c5.4-1.1,13-1.7,20.3-1.7c11.3,0,18.6,2.1,23.7,6.7c4.1,3.7,6.5,9.2,6.5,15.6c0,10.8-6.8,18-15.5,20.9v0.4
		c6.3,2.2,10.1,8,12,16.6c2.7,11.4,4.6,19.3,6.3,22.5h-11c-1.3-2.3-3.2-9.4-5.5-19.6c-2.4-11.3-6.8-15.6-16.4-15.9h-10v35.4h-10.6
		V15.7H726z M736.5,52.9h10.8c11.3,0,18.5-6.2,18.5-15.6c0-10.6-7.7-15.2-18.9-15.3c-5.1,0-8.8,0.5-10.5,1v29.9H736.5z"/>
	<path d="M790,83.7c4.7,2.9,11.7,5.4,19,5.4c10.8,0,17.2-5.7,17.2-14c0-7.7-4.4-12-15.5-16.3C797.3,54.1,789,47.1,789,35.6
		c0-12.8,10.6-22.3,26.5-22.3c8.4,0,14.5,1.9,18.1,4l-2.9,8.6c-2.7-1.5-8.2-3.9-15.6-3.9c-11.2,0-15.5,6.7-15.5,12.3
		c0,7.7,5,11.4,16.3,15.8c13.9,5.4,20.9,12,20.9,24.1c0,12.7-9.4,23.6-28.7,23.6c-7.9,0-16.6-2.3-20.9-5.2L790,83.7z"/>
	<path d="M894,58.2H862v29.6h35.5v8.9h-46.1v-82h44.3v8.9H862v25.9H894V58.2z"/>
	<path d="M947.7,14.6v82h-10.6v-82H947.7z"/>
	<path d="M966.2,96.6v-82h11.6l26.3,41.5c6.1,9.6,10.8,18.3,14.7,26.7l0.2-0.1c-1-11-1.2-20.9-1.2-33.7V14.6h10v82H1017l-26-41.6
		c-5.7-9.1-11.2-18.5-15.3-27.4l-0.4,0.1c0.6,10.3,0.9,20.2,0.9,33.8v35h-10V96.6z"/>
	<path d="M1072.1,15.7c5.4-1.1,13-1.7,20.3-1.7c11.3,0,18.6,2.1,23.7,6.7c4.1,3.7,6.5,9.2,6.5,15.6c0,10.8-6.8,18-15.5,20.9v0.4
		c6.3,2.2,10.1,8,12,16.6c2.7,11.4,4.6,19.3,6.3,22.5h-11c-1.3-2.3-3.2-9.4-5.5-19.6c-2.4-11.3-6.8-15.6-16.4-15.9h-10v35.4h-10.6
		V15.7H1072.1z M1082.6,52.9h10.8c11.3,0,18.5-6.2,18.5-15.6c0-10.6-7.7-15.2-18.9-15.3c-5.1,0-8.8,0.5-10.5,1L1082.6,52.9
		L1082.6,52.9z"/>
</g>
</svg>
